<svg width="200" height="59" viewBox="0 0 200 59" fill="none" xmlns="http://www.w3.org/2000/svg">
<rect x="0.5" y="0.5" width="199" height="58" rx="9.5" fill="white" stroke="black"/>
<path d="M78.9437 20.0682C78.5153 18.4776 77.2611 17.2235 75.6707 16.7953C72.7648 16 61.1413 16 61.1413 16C61.1413 16 49.5177 16 46.6119 16.7647C45.0519 17.1929 43.7672 18.4776 43.3389 20.0682C42.5742 22.9741 42.5742 29 42.5742 29C42.5742 29 42.5742 35.0565 43.3389 37.9318C43.7672 39.5223 45.0213 40.7765 46.6119 41.2047C49.5483 42 61.1413 42 61.1413 42C61.1413 42 72.7648 42 75.6707 41.2353C77.2611 40.8071 78.5153 39.5529 78.9437 37.9623C79.7082 35.0565 79.7082 29.0306 79.7082 29.0306C79.7082 29.0306 79.7388 22.9741 78.9437 20.0682Z" fill="#FF0000"/>
<path d="M57.4401 23.4329V34.5671L67.106 29L57.4401 23.4329Z" fill="white"/>
<path d="M152.267 35.204C152.267 36.244 152.298 37.0393 152.359 37.5593C152.421 38.0793 152.543 38.477 152.757 38.6911C152.94 38.9358 153.246 39.0581 153.675 39.0581C154.225 39.0581 154.592 38.844 154.806 38.4158C155.02 37.9875 155.112 37.284 155.143 36.2746L158.293 36.4582C158.324 36.6111 158.324 36.7946 158.324 37.0393C158.324 38.5381 157.926 39.6699 157.1 40.404C156.274 41.1381 155.112 41.5052 153.613 41.5052C151.809 41.5052 150.555 40.924 149.82 39.7923C149.086 38.6605 148.719 36.917 148.719 34.5311V31.6864C148.719 29.2393 149.086 27.4652 149.851 26.3334C150.616 25.2017 151.901 24.6511 153.705 24.6511C154.959 24.6511 155.938 24.8958 156.611 25.3546C157.284 25.8134 157.743 26.5476 158.018 27.4958C158.293 28.4746 158.416 29.8205 158.416 31.5334V34.317H152.267V35.204ZM152.726 27.5264C152.543 27.7711 152.421 28.1381 152.359 28.6581C152.298 29.1781 152.267 29.9734 152.267 31.044V32.2064H154.959V31.044C154.959 30.004 154.928 29.2087 154.868 28.6581C154.806 28.1076 154.653 27.7405 154.47 27.5264C154.286 27.3123 153.98 27.1899 153.613 27.1899C153.185 27.1593 152.91 27.2817 152.726 27.5264Z" fill="#282828"/>
<path d="M134.587 25.0182V41.3217H131.712L131.406 39.3334H131.315C130.55 40.8322 129.357 41.597 127.797 41.597C126.726 41.597 125.931 41.2299 125.411 40.5264C124.891 39.8228 124.646 38.7217 124.646 37.1922V25.0182H128.317V36.9781C128.317 37.7123 128.409 38.2323 128.561 38.5381C128.714 38.844 128.99 38.997 129.357 38.997C129.663 38.997 129.969 38.9052 130.275 38.6911C130.58 38.5075 130.795 38.2628 130.917 37.9569V25.0182H134.587Z" fill="#282828"/>
<path d="M125.747 21.9593H122.107V41.2911H118.529V21.9593H114.889V18.9923H125.747V21.9593Z" fill="#282828"/>
<path d="M146.731 27.6181C146.517 26.5782 146.15 25.844 145.66 25.3852C145.171 24.9264 144.467 24.6817 143.611 24.6817C142.938 24.6817 142.296 24.8652 141.714 25.2629C141.133 25.6299 140.674 26.1499 140.369 26.7617H140.338V18.1664H136.79V41.2911H139.818L140.185 39.7617H140.277C140.552 40.3122 140.98 40.7405 141.562 41.0769C142.143 41.3828 142.755 41.5664 143.458 41.5664C144.712 41.5664 145.599 40.9852 146.18 39.8534C146.762 38.7217 147.068 36.917 147.068 34.5005V31.9311C147.037 30.0652 146.945 28.6275 146.731 27.6181ZM143.366 34.2558C143.366 35.4487 143.305 36.3664 143.213 37.0393C143.122 37.7123 142.938 38.2017 142.724 38.477C142.479 38.7522 142.173 38.9052 141.806 38.9052C141.5 38.9052 141.225 38.844 140.98 38.6911C140.736 38.5381 140.521 38.324 140.369 38.0487V28.8111C140.491 28.3828 140.705 28.0158 141.011 27.7099C141.317 27.4346 141.653 27.2817 141.99 27.2817C142.357 27.2817 142.663 27.4346 142.846 27.7099C143.06 28.0158 143.183 28.5052 143.275 29.1781C143.366 29.8817 143.397 30.8605 143.397 32.1146V34.2558H143.366Z" fill="#282828"/>
<path fill-rule="evenodd" clip-rule="evenodd" d="M99.138 32.4791C99.1225 32.5771 99.0849 32.6703 99.028 32.7518C98.9707 32.8333 98.8959 32.901 98.8086 32.9498C98.6328 33.062 98.4789 33.1182 98.3235 33.1743C97.992 33.2874 97.6432 33.4006 97.2742 33.5318C96.8851 33.6631 96.5363 33.7943 96.2251 33.8894C95.837 34.0206 95.4679 34.1338 95.1174 34.265C94.8534 34.3766 94.6059 34.5221 94.3804 34.6977C94.1708 34.8855 93.988 35.1004 93.8365 35.3367C93.6811 35.5992 93.5829 35.9378 93.5829 36.3324C93.5829 37.1226 93.7772 37.7237 94.1662 38.0993C94.5544 38.4949 95.274 38.6823 96.3403 38.6823C97.4281 38.6823 98.1659 38.4759 98.5559 38.0622C98.9431 37.6485 99.137 37.0665 99.137 36.3152L99.138 32.4791ZM96.3412 24.1515C98.2456 24.1515 99.6434 24.509 100.536 25.2422C101.43 25.9573 101.876 26.877 101.876 27.9668V37.2539C101.876 37.6295 101.799 38.0432 101.664 38.494C101.527 38.9466 101.256 39.3593 100.828 39.7341C100.421 40.1115 99.8576 40.4311 99.1389 40.6755C98.4204 40.9198 97.4884 41.0511 96.3424 41.0511C95.198 41.0511 94.2641 40.9198 93.5466 40.6755C92.8287 40.4311 92.2648 40.1115 91.8573 39.7341C91.4785 39.3964 91.1913 38.97 91.0225 38.494C90.8853 38.0441 90.8074 37.6305 90.8074 37.2548V35.7703C90.8074 34.9801 91.0207 34.2469 91.4482 33.607C91.8758 32.9498 92.4773 32.499 93.2545 32.2166C93.6426 32.0853 94.0893 31.9541 94.5938 31.7848C95.0992 31.6146 95.564 31.4454 96.0309 31.296C96.4979 31.1449 96.9054 30.9937 97.2542 30.8616C97.4644 30.7783 97.6784 30.7034 97.895 30.6371L98.2447 30.4678C98.382 30.3927 98.5165 30.2795 98.6528 30.1293C98.7883 29.9799 98.9046 29.8106 99.0025 29.6224C99.1061 29.4185 99.1595 29.1933 99.1583 28.9652V28.3633C99.1598 28.1427 99.1128 27.9244 99.021 27.7233C98.944 27.497 98.7883 27.2907 98.575 27.1033C98.3616 26.915 98.0699 26.7648 97.7211 26.6507C97.3711 26.5393 96.9063 26.4823 96.3806 26.4823C95.2931 26.4823 94.5744 26.6905 94.1862 27.1214C93.8568 27.4979 93.6626 27.9677 93.6241 28.4936C93.6241 28.6068 93.5272 28.6819 93.4099 28.6819L91.0416 28.7199C90.9855 28.7201 90.9313 28.6984 90.8913 28.6594C90.851 28.6204 90.8283 28.5673 90.8274 28.5117V27.9686C90.8274 27.4409 90.9256 26.9521 91.1389 26.4823C91.3531 26.0116 91.6834 25.6179 92.1294 25.2784C92.576 24.9408 93.1593 24.6593 93.8578 24.471C94.538 24.2447 95.3728 24.1515 96.3433 24.1515H96.3412ZM114.889 36.8402V37.4041C114.889 37.6485 114.852 37.9871 114.754 38.4198C114.676 38.8325 114.443 39.2652 114.074 39.6779C113.705 40.0925 113.161 40.4682 112.423 40.7687C111.685 41.0701 110.675 41.2213 109.375 41.2213C108.075 41.2213 107.064 41.0701 106.326 40.7687C105.588 40.4682 105.044 40.1115 104.676 39.6788C104.307 39.2661 104.073 38.8334 103.995 38.4026C103.918 37.9681 103.861 37.6495 103.861 37.4051V24.7535C103.861 24.6403 103.958 24.5453 104.074 24.5453H106.385C106.502 24.5453 106.599 24.6403 106.599 24.7535V36.5958C106.599 36.9905 106.657 37.2729 106.715 37.4983C106.775 37.7246 106.891 37.9491 107.066 38.1374C107.24 38.3437 107.513 38.513 107.881 38.6442C108.23 38.7764 108.717 38.8524 109.318 38.8524C109.94 38.8524 110.444 38.7764 110.814 38.6442C111.183 38.513 111.455 38.3437 111.649 38.1554C111.841 37.9681 111.978 37.7617 112.036 37.5354C112.095 37.3091 112.173 37.1226 112.173 36.5759V24.7353C112.173 24.6231 112.269 24.529 112.386 24.529H114.696C114.812 24.529 114.909 24.6231 114.909 24.7371V36.842H114.89L114.889 36.8402ZM85.9879 18.1937H88.2992C88.4156 18.1937 88.5125 18.2869 88.5125 18.3991V40.7877C88.5119 40.8431 88.4892 40.8961 88.4492 40.9351C88.4092 40.974 88.3553 40.9959 88.2992 40.9959H85.9879C85.9318 40.9959 85.8779 40.974 85.8379 40.9351C85.7979 40.8961 85.7751 40.8431 85.7745 40.7877V18.3991C85.7927 18.2869 85.8715 18.1937 85.9879 18.1937Z" fill="#282828"/>
</svg>
